@startuml
title 포장 주문 상태 다이어그램

[*] --> WAITING
WAITING: 주문 생성 검증
WAITING: - 수량 0 이상
WAITING: - 메뉴 전시 상태 확인
WAITING: - 메뉴 가격 일치 확인

WAITING -> ACCEPTED : accept()
ACCEPTED: 주문 접수
ACCEPTED: - 주문 금액 확인
ACCEPTED: - 메뉴 준비 시작

ACCEPTED -> SERVED : serve()
SERVED: 포장 완료
SERVED: - 메뉴 준비 완료
SERVED: - 포장 완료

SERVED -> COMPLETED : complete()
COMPLETED: 주문 완료
COMPLETED: - 결제 완료 확인
COMPLETED: - 고객 수령 확인
COMPLETED: - 주문 종료

COMPLETED --> [*]

@enduml